<svg width="63.000000" height="63.000000" viewBox="0 0 63 63" fill="none" xmlns="http://www.w3.org/2000/svg" xmlns:xlink="http://www.w3.org/1999/xlink">
	<desc>
			Created with Pixso.
	</desc>
	<defs>
		<clipPath id="clip73_891">
			<rect id="dog_vet_24x" width="63.000000" height="63.000000" fill="white"/>
		</clipPath>
	</defs>
	<g clip-path="url(#clip73_891)">
		<path id="Vector" d="M48.2344 54.1406L48.2344 45.2812L54.1406 45.2812L54.1406 56.1094C54.1406 57.1537 53.7256 58.1552 52.9873 58.8936C52.249 59.6321 51.2476 60.0469 50.2031 60.0469L48.2344 60.0469L48.2344 54.1406Z" fill-rule="nonzero" fill="#F6BB92"/>
		<path id="Vector" d="M52.8789 39.375L53.8267 37.0416L54.6675 34.9722C55.1182 33.8594 55.2393 32.6323 55.0156 31.4478C54.792 30.2631 54.2339 29.1746 53.4121 28.3208C52.3159 27.1813 51.6997 25.636 51.6997 24.0245L51.6997 18.375L27.0503 18.375L27.0503 24.025C27.0503 25.6364 26.4346 27.1818 25.3379 28.3213C24.5161 29.1748 23.958 30.2633 23.7344 31.4479C23.5107 32.6324 23.6318 33.8594 24.082 34.9722L24.9722 37.1715L52.8789 39.375Z" fill-rule="nonzero" fill="#834B10"/>
		<path id="Vector" d="M54.1406 40.4409C54.1406 39.0428 53.6445 37.6901 52.7407 36.6233C51.8374 35.5565 50.5845 34.8448 49.2056 34.6151L48.2344 34.4532L43.1509 33.606L39.375 37.4064L35.5596 33.5767L28.5469 34.4532L28.5469 60.047L48.2344 60.047L48.2344 52.172C49.125 51.2811 49.687 50.1149 49.8291 48.8634C49.9712 47.6119 49.6851 46.3492 49.0171 45.2814L54.1406 45.2814L54.1406 40.4409Z" fill-rule="nonzero" fill="#5D62B5"/>
		<path id="Vector" d="M52.5 23.625L26.25 23.625L26.25 16.2133C26.25 12.6094 27.6328 9.1532 30.0942 6.60486C32.5557 4.05664 35.894 2.625 39.375 2.625C42.856 2.625 46.1943 4.05664 48.6558 6.60486C51.1172 9.1532 52.5 12.6094 52.5 16.2133L52.5 23.625Z" fill-rule="nonzero" fill="#834B10"/>
		<path id="Vector" d="M47.25 16.7344L47.25 15.75L46.2656 10.8281L32.4844 10.8281L31.5 15.75L31.5 16.7344C30.7168 16.7344 29.9658 17.0455 29.4116 17.5994C28.8579 18.1532 28.5469 18.9043 28.5469 19.6875C28.5469 20.4707 28.8579 24.3837 29.4116 24.9375C29.9658 25.4913 29.6865 24.7764 30.4697 24.7764L30.1875 24.9375L31.5 24.9375C31.5 26.765 33.2104 27.2052 34.5024 28.4974C35.7949 29.7897 37.5474 30.5156 39.375 30.5156C41.2026 30.5156 42.9551 29.7897 44.2476 28.4974C45.5396 27.2052 46.2656 26.6039 46.2656 24.7764L47.25 24.9375L48.5625 24.9375C49.3457 24.9375 48.7842 25.3302 49.3384 24.7764C49.8921 24.2225 50.2031 20.4707 50.2031 19.6875C50.2031 18.9043 49.8921 18.1532 49.3384 17.5994C48.7842 17.0455 48.0332 16.7344 47.25 16.7344Z" fill-rule="nonzero" fill="#F6BB92"/>
		<path id="Vector" d="M38.3906 41.1654L38.3906 60.0469L16.3652 60.0469C17.0996 58.9039 17.9541 57.8429 18.9146 56.8821L18.9873 56.8096C20.7476 55.0525 22.1553 52.975 23.1353 50.6892C23.5215 49.7885 23.9067 48.8878 24.1875 48.2344C24.4419 47.6401 24.6094 47.25 24.6094 47.25L21.7769 47.25C20.8989 47.2493 20.0464 46.9554 19.3545 46.4152C18.6626 45.8748 18.1709 45.1189 17.9575 44.2673L17.4727 42.3281L17.3457 41.8212C17.2734 41.531 17.2681 41.228 17.3301 40.9354C17.3921 40.6427 17.52 40.368 17.7041 40.1323C17.8882 39.8965 18.1235 39.7057 18.3926 39.5745C18.6611 39.4432 18.9565 39.3751 19.2554 39.375L22.6406 39.375C23.2754 37.4691 24.5713 35.8533 26.2939 34.8198L26.7246 34.5626C27.8315 33.8987 29.0884 33.5247 30.3784 33.475C31.6685 33.4253 32.9502 33.7015 34.105 34.2784L34.1479 34.3005C35.4229 34.938 36.4951 35.918 37.2441 37.1304C37.9937 38.3429 38.3906 39.74 38.3906 41.1654Z" fill-rule="nonzero" fill="#4B4B4B"/>
		<path id="Vector" d="M38.3906 41.3438L38.3906 44.137C38.3906 44.7567 38.1958 45.3608 37.833 45.8636C37.4707 46.3665 36.9595 46.7424 36.3711 46.9385C35.7651 47.1405 35.1099 47.1405 34.5039 46.9385C33.9155 46.7424 33.4043 46.3665 33.042 45.8636C32.6792 45.3608 32.4844 44.7567 32.4844 44.137L32.4844 39.375L36.4219 39.375L38.3906 41.3438Z" fill-rule="nonzero" fill="#000000"/>
		<path id="Vector" d="M29.2432 45.9778L27.2744 47.9465C27.0898 48.131 26.8394 48.2345 26.5781 48.2345L24.187 48.2345C24.4419 47.6401 24.6094 47.2501 24.6094 47.2501L21.7769 47.2501C20.8184 47.251 19.8926 46.9008 19.1743 46.2657L26.1709 46.2657L27.8506 44.5848C28.0352 44.4001 28.2856 44.2964 28.5469 44.2964C28.8081 44.2964 29.0586 44.4001 29.2432 44.5848C29.4277 44.7695 29.5317 45.0201 29.5317 45.2814C29.5317 45.5425 29.4277 45.7931 29.2432 45.9778Z" fill-rule="nonzero" fill="#000000"/>
		<path id="Vector" d="M20.6719 39.375L20.6719 40.5647C20.6719 41.0325 20.4858 41.481 20.1553 41.8116C19.8247 42.1423 19.376 42.3281 18.9087 42.3281L17.4727 42.3281L17.3457 41.8212C17.2734 41.531 17.2681 41.228 17.3301 40.9353C17.3921 40.6427 17.52 40.368 17.7041 40.1322C17.8882 39.8965 18.1235 39.7057 18.3926 39.5745C18.6611 39.4432 18.9565 39.375 19.2554 39.375L20.6719 39.375Z" fill-rule="nonzero" fill="#000000"/>
		<path id="Vector" d="M23.7246 57.6154C23.542 57.6152 23.3628 57.5642 23.2075 57.468C23.0522 57.3719 22.9268 57.2344 22.8452 57.0709C22.7632 56.9073 22.7285 56.7244 22.7451 56.5424C22.7617 56.3604 22.8286 56.1865 22.938 56.0404C24.1123 54.4758 25.0259 52.7321 25.644 50.8762C25.6836 50.7524 25.748 50.6377 25.8325 50.5388C25.917 50.4399 26.02 50.3588 26.1362 50.3C26.2524 50.2413 26.3789 50.2062 26.5088 50.1967C26.6382 50.1871 26.7686 50.2034 26.8921 50.2445C27.0156 50.2856 27.1294 50.3508 27.2275 50.4363C27.3257 50.5217 27.4058 50.6259 27.4634 50.7424C27.521 50.8591 27.5547 50.986 27.563 51.1158C27.5713 51.2456 27.5537 51.3759 27.5117 51.4988C26.8267 53.5554 25.814 55.4879 24.5132 57.2216C24.4214 57.344 24.3022 57.4434 24.1655 57.5117C24.0288 57.5801 23.8779 57.6156 23.7246 57.6154Z" fill-rule="nonzero" fill="#000000"/>
		<path id="Vector" d="M31.5 16.7344C32.4253 16.426 33.2725 15.9196 33.9824 15.2504C34.6919 14.5813 35.2476 13.7654 35.6099 12.8597L36.4219 10.8281L31.5 9.84375L31.5 16.7344Z" fill-rule="nonzero" fill="#834B10"/>
		<path id="Vector" d="M36.4219 10.8281L36.5371 11.001C37.7129 12.7646 39.3057 14.2107 41.1748 15.2109C43.0435 16.2111 45.1304 16.7344 47.25 16.7344L47.25 9.84375L36.4219 10.8281Z" fill-rule="nonzero" fill="#834B10"/>
		<path id="Vector" d="M36.5859 19.6055C36.5859 20.285 36.0352 20.8359 35.3555 20.8359C34.6758 20.8359 34.125 20.285 34.125 19.6055C34.125 18.9259 34.6758 18.375 35.3555 18.375C36.0352 18.375 36.5859 18.9259 36.5859 19.6055Z" fill-rule="evenodd" fill="#000000"/>
		<path id="Vector" d="M41.8359 19.6055C41.8359 20.285 41.2852 20.8359 40.6055 20.8359C39.9258 20.8359 39.375 20.285 39.375 19.6055C39.375 18.9259 39.9258 18.375 40.6055 18.375C41.2852 18.375 41.8359 18.9259 41.8359 19.6055Z" fill-rule="evenodd" fill="#000000"/>
		<path id="Vector" d="M45.2812 42.3281C45.02 42.3281 44.77 42.2244 44.585 42.0398C44.4004 41.8552 44.2969 41.6049 44.2969 41.3438L44.2969 34.4531C44.2969 34.192 44.4004 33.9417 44.585 33.7571C44.77 33.5725 45.02 33.4688 45.2812 33.4688C45.5425 33.4688 45.7925 33.5725 45.9775 33.7571C46.1621 33.9417 46.2656 34.192 46.2656 34.4531L46.2656 41.3438C46.2656 41.6049 46.1621 41.8552 45.9775 42.0398C45.7925 42.2244 45.5425 42.3281 45.2812 42.3281Z" fill-rule="nonzero" fill="#C3C3C3"/>
		<path id="Vector" d="M48.2344 44.2969C48.2344 45.9279 46.9121 47.25 45.2812 47.25C43.6504 47.25 42.3281 45.9279 42.3281 44.2969C42.3281 42.6659 43.6504 41.3438 45.2812 41.3438C46.9121 41.3438 48.2344 42.6659 48.2344 44.2969Z" fill-rule="evenodd" fill="#E4E4E2"/>
		<path id="Vector" d="M46.2656 44.2969C46.2656 44.8406 45.8247 45.2812 45.2812 45.2812C44.7378 45.2812 44.2969 44.8406 44.2969 44.2969C44.2969 43.7532 44.7378 43.3125 45.2812 43.3125C45.8247 43.3125 46.2656 43.7532 46.2656 44.2969Z" fill-rule="evenodd" fill="#C3C3C3"/>
		<path id="Vector" d="M49.2188 60.0469L34.4531 60.0469C33.6699 60.0469 32.9189 59.7357 32.3647 59.1819C31.811 58.6281 31.5 57.877 31.5 57.0938C31.5 56.3105 31.811 55.5594 32.3647 55.0056C32.9189 54.4518 33.6699 54.1406 34.4531 54.1406L35.4375 54.1406C35.4375 53.6185 35.645 53.1177 36.0142 52.7485C36.3833 52.3793 36.8843 52.1719 37.4062 52.1719L37.5752 52.1719C38.0972 52.1719 38.5981 52.3793 38.9673 52.7484L40.3594 54.1406L49.2188 54.1406L49.2188 60.0469Z" fill-rule="nonzero" fill="#F6BB92"/>
		<path id="Vector" d="M16.4746 55.4772C16.3291 55.7993 16.2549 56.149 16.2568 56.5026C16.2588 56.856 16.3374 57.2048 16.4868 57.5253C16.6362 57.8457 16.8525 58.1301 17.1221 58.359C17.3911 58.588 17.707 58.7561 18.0469 58.8519L21.8364 59.9225C22.5898 60.1355 23.3975 60.0403 24.0811 59.658C24.7646 59.2756 25.2681 58.6375 25.481 57.8838C25.6938 57.1301 25.5986 56.3228 25.2168 55.6393C24.8345 54.9558 24.1963 54.4521 23.4424 54.2391L22.4951 53.9716C22.5654 53.7228 22.5859 53.4625 22.5557 53.2058C22.5254 52.949 22.4448 52.7007 22.3188 52.475C22.1924 52.2494 22.0229 52.0508 21.8203 51.8906C21.6172 51.7305 21.3848 51.6118 21.1357 51.5415L20.9736 51.4956C20.7246 51.4253 20.4644 51.4047 20.2075 51.4349C19.9507 51.4652 19.7026 51.5457 19.4771 51.6719C18.3608 52.2961 17.4746 53.262 16.9482 54.4272L16.4746 55.4772Z" fill-rule="nonzero" fill="#F6BB92"/>
		<path id="Vector" d="M11.4497 23.625C12.3916 23.6251 13.2944 24.059 13.9604 24.8313L15.75 26.9064L17.5391 24.8313C18.2051 24.0591 19.1079 23.6251 20.0498 23.625C20.8418 23.625 21.6113 23.932 22.2354 24.4973C22.8599 25.0626 23.3032 25.8538 23.4951 26.745C23.7124 27.7526 23.6558 28.8134 23.333 29.7821C23.0103 30.7507 22.4365 31.58 21.6914 32.1561L15.75 36.75L9.80859 32.1561C9.06348 31.5801 8.48975 30.7509 8.16699 29.7821C7.84424 28.8134 7.7876 27.7526 8.00488 26.745C8.19678 25.8539 8.64014 25.0629 9.26416 24.4976C9.88867 23.9323 10.6577 23.6251 11.4497 23.625Z" fill-rule="nonzero" fill="#5D62B5"/>
		<path id="Vector" d="M31.5 16.7344L32.4844 16.7344L32.4844 22.6406L31.5 22.6406L31.5 16.7344Z" fill-rule="nonzero" fill="#EEB58E"/>
		<path id="Vector" d="M46.2656 16.7344L47.25 16.7344L47.25 22.6406L46.2656 22.6406L46.2656 16.7344Z" fill-rule="nonzero" fill="#EEB58E"/>
		<path id="Vector" d="M35.5596 33.5765L39.375 37.4062L43.1509 33.6058C42.9209 33.5675 42.7119 33.449 42.5615 33.2711C42.4106 33.0934 42.3281 32.8679 42.3281 32.6349L42.3281 29.5312L36.4219 29.5312L36.4219 32.5997C36.4219 32.8397 36.3345 33.0714 36.1753 33.2512C36.0166 33.4312 35.7979 33.5468 35.5596 33.5765Z" fill-rule="nonzero" fill="#F6BB92"/>
		<path id="Vector" d="M39.375 31.5C36.5903 31.5 33.9194 30.532 31.9502 28.8091C29.9814 27.0861 28.875 24.7491 28.875 22.3125L28.875 21L49.875 21L49.875 22.3125C49.875 24.7491 48.7686 27.0861 46.7998 28.8091C44.8306 30.532 42.1597 31.5 39.375 31.5Z" fill-rule="nonzero" fill="#5D62B5"/>
		<path id="Vector" d="M28.5469 40.3594C28.5469 40.9031 28.106 41.3438 27.5625 41.3438C27.019 41.3438 26.5781 40.9031 26.5781 40.3594C26.5781 39.8157 27.019 39.375 27.5625 39.375C28.106 39.375 28.5469 39.8157 28.5469 40.3594Z" fill-rule="evenodd" fill="#000000"/>
	</g>
</svg>
