<svg width="63.000000" height="63.000000" viewBox="0 0 63 63" fill="none" xmlns="http://www.w3.org/2000/svg" xmlns:xlink="http://www.w3.org/1999/xlink">
	<desc>
			Created with Pixso.
	</desc>
	<defs>
		<clipPath id="clip73_927">
			<rect id="dog_love_24x" width="63.000000" height="63.000000" fill="white"/>
		</clipPath>
	</defs>
	<g clip-path="url(#clip73_927)">
		<path id="Vector" d="M60.0469 23.9585L60.0469 25.2258C60.0469 29.2107 59.0601 33.1335 57.1743 36.6442C55.2891 40.1547 52.563 43.1436 49.2407 45.344L38.3906 52.5299L34.4531 55.1373L31.5 57.0938L30.5156 56.449L27.5625 54.5134L26.1475 53.5869L15.5371 46.636L14.1431 45.723L13.8589 45.536C10.5088 43.3411 7.75781 40.3468 5.854 36.8232C3.9502 33.2997 2.95312 29.3577 2.95312 25.3525L2.95312 22.5065C2.95312 19.3799 3.84473 16.3181 5.52344 13.6803C6.84717 11.5995 8.6748 9.88635 10.8364 8.69946C12.9985 7.5127 15.4248 6.8905 17.8911 6.89062L18.2637 6.89062C20.5396 6.89075 22.7842 7.42065 24.8198 8.4386C26.8555 9.45642 28.626 10.9343 29.9912 12.755L31.5 14.7656L33.0088 12.755C34.46 10.8198 36.3672 9.27393 38.561 8.25488C40.7549 7.23596 43.167 6.77576 45.5815 6.91516C47.9966 7.05469 50.3394 7.78955 52.4014 9.05432C54.4634 10.3192 56.1802 12.0745 57.3989 14.1639C59.1323 17.1371 60.0459 20.5168 60.0469 23.9585Z" fill-rule="nonzero" fill="#5D62B5"/>
		<path id="Vector" d="M34.4531 46.7578L34.4531 55.125L34.4531 55.1373L38.3906 52.5299L38.3906 43.6816L34.4531 46.7578Z" fill-rule="nonzero" fill="#EA9D2D"/>
		<path id="Vector" d="M44.2969 20.6719L44.2969 23.1328C44.2969 23.4561 44.2334 23.7761 44.1099 24.0747C43.9863 24.3733 43.8047 24.6447 43.5762 24.8732C43.3477 25.1017 43.0762 25.283 42.7778 25.4066C42.479 25.5303 42.1592 25.5939 41.8359 25.5938L39.375 25.5938L39.375 31.5L39.0146 32.4858L39.6382 33.4688L40.1182 37.0667C40.2363 37.9474 40.2734 38.837 40.229 39.7245C40.145 41.4114 39.4976 43.0214 38.3906 44.2969L34.4531 47.25L34.4531 55.1373L31.5 57.0938L30.5156 56.449L30.5156 49.2188L26.1475 53.5869L15.5371 46.636L23.625 35.4375L25.5938 32.4844L28.1714 29.9065L29.4751 29.5875L29.5312 28.5469L29.5312 25.8054C29.5312 23.1484 30.5869 20.6003 32.4658 18.7216C33.1084 18.0797 33.9795 17.7191 34.8877 17.7188L37.0186 17.7188C37.8975 17.7189 38.7402 18.0681 39.3613 18.6896L41.3438 20.6719L44.2969 20.6719Z" fill-rule="nonzero" fill="#FBB540"/>
		<path id="Vector" d="M35.4375 20.6719L37.4062 20.6719L37.4062 22.6406L35.4375 22.6406L35.4375 20.6719Z" fill-rule="nonzero" fill="#985713"/>
		<path id="Vector" d="M39.6387 33.4688L38.2188 33.4688C36.2373 33.4662 34.2837 33.005 32.5107 32.1213L28.1719 29.9065L29.5317 28.5469L29.5317 28.3906L33.3989 30.3643C34.8965 31.1099 36.5459 31.4985 38.2188 31.5L39.3755 31.5L39.6387 33.4688Z" fill-rule="nonzero" fill="#5D62B5"/>
		<path id="Vector" d="M31.7451 29.5312L29.5312 29.5312L29.5312 27.5625L31.7451 27.5625C31.9409 27.5623 32.1289 27.4843 32.2676 27.3457C32.4062 27.207 32.4844 27.019 32.4844 26.823L32.4844 23.625L34.4531 23.625L34.4531 26.823C34.4521 27.541 34.1665 28.2294 33.6592 28.7371C33.1514 29.2448 32.4629 29.5304 31.7451 29.5312Z" fill-rule="nonzero" fill="#985713"/>
		<path id="Vector" d="M31.5 35.4375L31.5 37.4062C31.5 38.1895 31.1885 38.9404 30.6348 39.4943C30.0811 40.048 29.3301 40.3591 28.5469 40.3594L28.5469 43.9401C28.5474 44.8147 28.2881 45.6699 27.8027 46.3973L26.5781 48.2344L26.5781 51.1875L26.936 51.9037L27.2339 52.5004L27.5625 53.1562L27.5625 54.5134L26.1475 53.5869L15.5371 46.636L14.1431 45.723L19.6875 37.4062L19.6875 34.3252C19.6875 34.2501 19.689 34.1738 19.6914 34.0988C19.7534 32.6591 20.2998 31.2826 21.2417 30.192L22.6406 28.5469L23.625 32.4844L25.9819 32.4844C26.4683 32.4844 26.9468 32.6045 27.3755 32.8339C27.8037 33.0634 28.1689 33.3951 28.4385 33.7998C28.7749 34.3035 29.23 34.7164 29.7642 35.0022C30.2983 35.2878 30.8945 35.4374 31.5 35.4375Z" fill-rule="nonzero" fill="#E4E4E2"/>
		<path id="Vector" d="M24.6094 35.4375L26.5781 35.4375L26.5781 37.4062L24.6094 37.4062L24.6094 35.4375Z" fill-rule="nonzero" fill="#29C3BE"/>
	</g>
</svg>
