<svg width="63.000000" height="63.000000" viewBox="0 0 63 63" fill="none" xmlns="http://www.w3.org/2000/svg" xmlns:xlink="http://www.w3.org/1999/xlink">
	<desc>
			Created with Pixso.
	</desc>
	<defs>
		<clipPath id="clip73_856">
			<rect id="dog_stream_24x" width="63.000000" height="63.000000" fill="white"/>
		</clipPath>
	</defs>
	<g clip-path="url(#clip73_856)">
		<path id="Vector" d="M4.61621 5.25L58.3838 5.25C59.4834 5.25 60.375 6.14539 60.375 7.25L60.375 45.25C60.375 46.3546 59.4834 47.25 58.3838 47.25L4.61621 47.25C3.5166 47.25 2.625 46.3546 2.625 45.25L2.625 7.25C2.625 6.14539 3.5166 5.25 4.61621 5.25Z" fill-rule="evenodd" fill="#5D62B5"/>
		<path id="Vector" d="M27.5625 24.2812L21.6562 30.1875C21.4805 30.1001 21.3096 30.0054 21.1445 29.9033C20.166 29.3093 19.3447 28.4882 18.751 27.5095C18.1572 26.5309 17.8081 25.4235 17.7334 24.2812C17.7236 24.1274 17.7188 23.9724 17.7188 23.8162L17.7188 21.3281L23.625 21.3281L27.5625 24.2812Z" fill-rule="nonzero" fill="#F3AF3E"/>
		<path id="Vector" d="M25.5938 27.2344L23.1328 28.7109L21.144 29.9033C20.1655 29.3093 19.3447 28.4882 18.751 27.5095C18.1572 26.5309 17.8081 25.4235 17.7334 24.2812L22.7305 24.2812L25.1089 26.7349L25.5938 27.2344Z" fill-rule="nonzero" fill="#5B3726"/>
		<path id="Vector" d="M45.2812 21.3281L45.2812 23.8162C45.2812 23.9724 45.2764 24.1274 45.2666 24.2812C45.1846 25.5225 44.7798 26.7206 44.0918 27.7567C43.4033 28.7928 42.4561 29.6309 41.3438 30.1875L35.4375 24.2812L39.375 21.3281L45.2812 21.3281Z" fill-rule="nonzero" fill="#F3AF3E"/>
		<path id="Vector" d="M45.2666 24.2812C45.1968 25.3458 44.8887 26.3812 44.3652 27.3109C43.8418 28.2405 43.1162 29.0406 42.2422 29.6522L39.375 28.2188L37.4062 27.2344L37.8911 26.7349L40.2695 24.2812L45.2666 24.2812Z" fill-rule="nonzero" fill="#5B3726"/>
		<path id="Vector" d="M42.3281 32.1562L42.3281 44.9531L20.6719 44.9531L20.6719 32.1562C20.6719 29.2844 21.8125 26.5303 23.8433 24.4996C25.874 22.469 28.6284 21.3281 31.5 21.3281C34.3716 21.3281 37.126 22.469 39.1567 24.4996C41.1875 26.5303 42.3281 29.2844 42.3281 32.1562Z" fill-rule="nonzero" fill="#F3AF3E"/>
		<path id="Vector" d="M26.2686 28.2844L29.2227 27.3008L29.8447 29.1692L26.8906 30.1528L26.2686 28.2844Z" fill-rule="nonzero" fill="#D18D28"/>
		<path id="Vector" d="M33.1572 29.1364L33.7793 27.2679L36.7334 28.2516L36.1113 30.12L33.1572 29.1364Z" fill-rule="nonzero" fill="#D18D28"/>
		<path id="Vector" d="M37.6309 35.8859L36.75 34.125C35.9702 34.5125 33.3198 36.6621 32.4854 36.4127L32.4854 34.125L30.5166 34.125L30.5166 36.4137C29.6816 36.6627 27.0303 34.5123 26.25 34.125L25.3696 35.8857C26.0454 36.2219 28.5376 38.4862 29.2915 38.5193C30.0454 38.5525 30.7979 38.4274 31.501 38.1519C32.2036 38.4272 32.9561 38.5524 33.71 38.519C34.4644 38.4857 36.9551 36.222 37.6309 35.8859Z" fill-rule="nonzero" fill="#744630"/>
		<path id="Vector" d="M23.625 42C23.6255 42.3456 23.5347 42.6852 23.3618 42.9844L20.6719 42.9844L20.6719 39.0469C21.4551 39.0469 22.2061 39.358 22.7603 39.9119C23.314 40.4657 23.625 41.2168 23.625 42Z" fill-rule="nonzero" fill="#D18D28"/>
		<path id="Vector" d="M42.3281 39.0469L42.3281 42.9844L39.6382 42.9844C39.4653 42.6852 39.3745 42.3456 39.375 42C39.375 41.2168 39.686 40.4657 40.2397 39.9119C40.7939 39.358 41.5449 39.0469 42.3281 39.0469Z" fill-rule="nonzero" fill="#D18D28"/>
		<path id="Vector" d="M20.6719 43.9688L18.7031 43.9688C18.1812 43.9688 17.6802 43.7614 17.311 43.3921C16.9419 43.0229 16.7344 42.5221 16.7344 42C16.7344 41.2168 17.0454 40.4657 17.5991 39.9119C18.1533 39.358 18.9043 39.0469 19.6875 39.0469C20.4707 39.0469 21.2217 39.358 21.7759 39.9119C22.3296 40.4657 22.6406 41.2168 22.6406 42C22.6406 42.5221 22.4331 43.0229 22.064 43.3921C21.6948 43.7614 21.1938 43.9688 20.6719 43.9688Z" fill-rule="nonzero" fill="#F3AF3E"/>
		<path id="Vector" d="M44.2969 43.9688L42.3281 43.9688C41.8062 43.9688 41.3052 43.7614 40.936 43.3921C40.5669 43.0229 40.3594 42.5221 40.3594 42C40.3594 41.2168 40.6704 40.4657 41.2241 39.9119C41.7783 39.358 42.5293 39.0469 43.3125 39.0469C44.0957 39.0469 44.8467 39.358 45.4009 39.9119C45.9546 40.4657 46.2656 41.2168 46.2656 42C46.2656 42.5221 46.0581 43.0229 45.689 43.3921C45.3198 43.7614 44.8188 43.9688 44.2969 43.9688Z" fill-rule="nonzero" fill="#F3AF3E"/>
		<path id="Vector" d="M31.5 35.1094C30.978 35.1094 30.4771 34.902 30.1079 34.5327C29.7388 34.1636 29.5312 33.6627 29.5312 33.1406L29.5312 31.1719L33.4688 31.1719L33.4688 33.1406C33.4688 33.6627 33.2612 34.1636 32.8921 34.5327C32.5229 34.902 32.022 35.1094 31.5 35.1094Z" fill-rule="nonzero" fill="#5B3726"/>
		<path id="Vector" d="M40.3594 53.4844L22.6406 53.4844L22.8091 53.3158C24.5913 51.5325 25.5928 49.1149 25.5938 46.5938L37.4062 46.5938C37.4062 49.115 38.4082 51.533 40.1909 53.3158L40.3594 53.4844Z" fill-rule="nonzero" fill="#D9D9D9"/>
		<path id="Vector" d="M58.3838 47.25L4.61621 47.25C4.08838 47.25 3.58154 47.0288 3.2085 46.6349C2.83496 46.2411 2.625 45.7069 2.625 45.15L2.625 42L60.375 42L60.375 45.15C60.375 45.7069 60.165 46.2411 59.7915 46.6349C59.4185 47.0288 58.9116 47.25 58.3838 47.25Z" fill-rule="nonzero" fill="#E4E4E2"/>
		<path id="Vector" d="M22.6406 53.4844L40.3594 53.4844C40.8813 53.4844 41.3823 53.6918 41.7515 54.061C42.1206 54.4302 42.3281 54.931 42.3281 55.4531L42.3281 57.4219L20.6719 57.4219L20.6719 55.4531C20.6719 54.931 20.8794 54.4302 21.2485 54.061C21.6177 53.6918 22.1187 53.4844 22.6406 53.4844Z" fill-rule="nonzero" fill="#E4E4E2"/>
		<path id="Vector" d="M37.6128 48.5625L25.3867 48.5625C25.5244 47.9153 25.5938 47.2554 25.5933 46.5938L37.4058 46.5938C37.4058 47.2554 37.4751 47.9153 37.6128 48.5625Z" fill-rule="nonzero" fill="#A8A8A8"/>
		<circle id="Ellipse 2" r="2.625000" transform="matrix(1 0 0 1 55.125 10.5)" fill="#62B58F"/>
	</g>
</svg>
